<svg width="87" height="87" viewBox="0 0 87 87" fill="none" xmlns="http://www.w3.org/2000/svg">
<path fill-rule="evenodd" clip-rule="evenodd" d="M3.625 10.2878C3.625 8.52069 4.32697 6.82599 5.57648 5.57648C6.82598 4.32698 8.52068 3.62501 10.2878 3.62501H76.705C77.5807 3.62358 78.4481 3.79489 79.2575 4.12913C80.0669 4.46336 80.8025 4.95397 81.422 5.57285C82.0416 6.19174 82.533 6.92674 82.8681 7.73579C83.2032 8.54485 83.3755 9.41205 83.375 10.2878V76.705C83.376 77.5809 83.2042 78.4484 82.8696 79.2578C82.5349 80.0672 82.044 80.8027 81.4248 81.4223C80.8056 82.0418 80.0704 82.5331 79.2611 82.8682C78.4519 83.2033 77.5845 83.3755 76.7086 83.375H10.2878C9.41248 83.375 8.54579 83.2025 7.73719 82.8675C6.92859 82.5324 6.19393 82.0413 5.57519 81.4223C4.95645 80.8032 4.46575 80.0683 4.13113 79.2595C3.79651 78.4507 3.62452 77.5839 3.625 76.7086V10.2878ZM35.1915 34.0315H45.9904V39.4545C47.5491 36.337 51.5366 33.5313 57.5287 33.5313C69.0164 33.5313 71.7388 39.7409 71.7388 51.1343V72.239H60.1134V53.7298C60.1134 47.241 58.5546 43.5798 54.5961 43.5798C49.1042 43.5798 46.8205 47.5274 46.8205 53.7298V72.239H35.1915V34.0315ZM15.254 71.7424H26.883V33.5313H15.254V71.7388V71.7424ZM28.5469 21.0685C28.5688 22.0642 28.3916 23.0542 28.0257 23.9805C27.6599 24.9068 27.1126 25.7507 26.4162 26.4626C25.7198 27.1746 24.8882 27.7402 23.9702 28.1264C23.0521 28.5126 22.0662 28.7115 21.0703 28.7115C20.0744 28.7115 19.0885 28.5126 18.1705 28.1264C17.2525 27.7402 16.4208 27.1746 15.7244 26.4626C15.028 25.7507 14.4808 24.9068 14.1149 23.9805C13.749 23.0542 13.5718 22.0642 13.5938 21.0685C13.6368 19.1141 14.4434 17.2543 15.8408 15.8872C17.2383 14.5202 19.1154 13.7548 21.0703 13.7548C23.0252 13.7548 24.9024 14.5202 26.2998 15.8872C27.6972 17.2543 28.5038 19.1141 28.5469 21.0685V21.0685Z" fill="#545454"/>
</svg>
