<svg width="433" height="408" viewBox="0 0 433 408" fill="none" xmlns="http://www.w3.org/2000/svg">
<path d="M122.683 315.376L122.625 385.029C122.556 397.596 133.514 407.743 147.1 407.694L281.74 407.205C295.326 407.156 306.395 396.928 306.464 384.361L306.5 315.375H122.683V315.376Z" fill="#02022B"/>
<path d="M285.875 49.9746H143.375C129.79 50.0906 122.637 61.5266 122.631 74.0946V377.831C122.624 390.399 133.631 400.492 147.216 400.376L281.846 399.222C295.431 399.106 306.612 388.823 306.619 376.256V72.5196C306.626 59.9516 299.46 49.8576 285.875 49.9746Z" fill="#04CBAB"/>
<path d="M205.228 384.264C205.202 389.065 209.388 392.941 214.578 392.922C219.768 392.903 223.997 388.996 224.023 384.195C224.049 379.394 219.863 375.518 214.673 375.537C209.483 375.557 205.254 379.464 205.228 384.264Z" fill="#02022B"/>
<path d="M131.84 70.3281V361.604C131.815 366.167 135.794 369.852 140.727 369.834L288.375 369.319C293.308 369.301 296.475 366.167 296.5 361.604V70.3281H131.84Z" fill="white"/>
<mask id="mask0_718_3458" style="mask-type:luminance" maskUnits="userSpaceOnUse" x="131" y="70" width="166" height="300">
<path d="M131.84 70.3281V361.604C131.815 366.167 135.794 369.852 140.727 369.834L288.375 369.319C293.308 369.301 296.475 366.167 296.5 361.604V70.3281H131.84Z" fill="white"/>
</mask>
<g mask="url(#mask0_718_3458)">
<path d="M186.636 315.048H130.875V370.809H186.636V315.048Z" fill="#9CAEE8"/>
<path d="M242.471 315.048H186.71V370.809H242.471V315.048Z" fill="white"/>
<path d="M298.375 315.048H242.614V370.809H298.375V315.048Z" fill="#9CAEE8"/>
<path d="M158.755 344.712C149.263 344.712 141.568 352.407 141.568 361.899H175.941C175.942 352.406 168.247 344.712 158.755 344.712Z" fill="white"/>
<path d="M158.755 342.194C163.791 342.194 167.873 338.112 167.873 333.076C167.873 328.04 163.791 323.958 158.755 323.958C153.719 323.958 149.637 328.04 149.637 333.076C149.637 338.111 153.72 342.194 158.755 342.194Z" fill="white"/>
<path d="M226.412 320.509C221.28 320.509 216.91 323.727 215.179 328.251C213.449 323.727 209.079 320.509 203.946 320.509C197.299 320.509 191.911 325.897 191.911 332.544C191.911 348.564 215.179 365.348 215.179 365.348C215.179 365.348 238.447 348.565 238.447 332.544C238.447 325.897 233.059 320.509 226.412 320.509Z" fill="#04CBAB"/>
<path d="M231.861 340.174L219.481 340.1L217.351 333.709C217.11 332.984 216.437 332.524 215.72 332.588C215.009 332.619 214.406 333.097 214.214 333.785L210.594 346.712L208.248 327.356C208.155 326.596 207.534 325.992 206.759 325.919C205.986 325.857 205.284 326.327 205.054 327.06L201.142 339.449H189.103C188.198 339.449 187.462 340.185 187.462 341.09C187.462 341.995 188.198 342.731 189.103 342.731H202.345C203.064 342.731 203.693 342.27 203.91 341.584L205.902 335.275L208.326 355.276C208.42 356.049 209.052 356.654 209.848 356.715C209.884 356.717 209.92 356.718 209.956 356.718C210.688 356.718 211.338 356.225 211.535 355.519L215.931 339.823L216.74 342.25C216.962 342.916 217.584 343.368 218.287 343.372L231.852 343.453C232.751 343.453 233.487 342.722 233.493 341.822C233.497 340.92 232.766 340.181 231.861 340.174Z" fill="white"/>
<path d="M276.579 323.958H264.41V361.898H276.579V323.958Z" fill="white"/>
<path d="M289.465 349.014V336.844H251.525V349.014H289.465Z" fill="white"/>
</g>
<path d="M101.215 164.279C99.2368 147.984 98.3888 135.197 98.4198 133.444C98.5518 126.347 110.414 126.284 111.415 128.17C112.535 130.279 116.8 144.748 121.464 160.925C114.714 162.037 107.964 163.155 101.215 164.279Z" fill="#FFBABA"/>
<path d="M99.0249 142.93C99.4789 148.433 100.197 155.888 101.215 164.279C107.964 163.155 114.714 162.037 121.464 160.925C119.31 153.454 117.242 146.351 115.529 140.658C110.257 141.141 104.501 141.779 99.0249 142.93Z" fill="#E06F6F"/>
<path d="M112.312 131.769C119.324 128.328 114.62 83.8827 110.165 84.1437C106.267 84.3927 108.371 104.733 107.607 104.643C106.598 104.531 105.561 102.526 104.505 102.317C103.535 102.126 102.125 104.126 102.125 104.126C102.125 104.126 97.7496 100.376 95.9826 103.98C95.5586 104.844 94.9736 107.301 94.9736 107.301C94.9736 107.301 92.4046 106.276 91.9446 106.859C91.1946 107.81 90.6566 108.955 90.3976 110.323C90.0576 112.092 90.3816 124.957 92.8686 129.594C94.5566 132.753 98.0056 134.405 101.451 134.531" fill="#FFBABA"/>
<path d="M106.213 124.372C106.202 124.372 106.19 124.371 106.179 124.371C105.8 124.352 105.508 124.03 105.526 123.651C105.616 121.815 106.452 120.252 107.234 119.171C104.045 118.562 99.7715 117.006 99.5875 114.136C99.5515 113.573 99.7135 112.737 100.689 111.946C102.861 110.184 108.005 109.54 111.699 110.569C112.065 110.671 112.279 111.05 112.176 111.416C112.075 111.782 111.698 111.998 111.329 111.894C108.118 111 103.367 111.544 101.554 113.015C101.137 113.353 100.937 113.702 100.959 114.05C101.083 115.988 104.99 117.533 108.604 118.002C108.858 118.035 109.073 118.206 109.161 118.446C109.249 118.687 109.197 118.956 109.024 119.146C108.273 119.973 106.999 121.666 106.898 123.72C106.881 124.085 106.578 124.372 106.213 124.372Z" fill="#E06F6F"/>
<path d="M101.439 112.651C101.158 112.651 100.894 112.478 100.793 112.198C99.6607 109.077 100.902 103.05 103.517 101.773C104.6 101.246 106.29 101.25 108.189 104.277C108.391 104.599 108.294 105.023 107.973 105.225C107.651 105.426 107.226 105.33 107.025 105.009C106.276 103.816 105.165 102.504 104.12 103.009C102.346 103.876 101.128 109.092 102.085 111.73C102.214 112.087 102.03 112.481 101.673 112.611C101.596 112.638 101.517 112.651 101.439 112.651Z" fill="#E06F6F"/>
<path d="M99.8845 122.518C98.7525 122.518 97.6935 121.853 96.8415 120.566C93.9425 116.186 93.4645 104.883 96.8435 102.267C97.9045 101.447 99.7325 101.093 102.416 104.075C102.67 104.357 102.647 104.792 102.365 105.046C102.082 105.299 101.648 105.277 101.394 104.995C100.303 103.782 98.7705 102.513 97.6855 103.354C95.1335 105.33 95.3265 115.785 97.9875 119.807C99.1415 121.55 100.2 121.231 100.898 120.842C101.227 120.656 101.647 120.774 101.834 121.106C102.02 121.437 101.902 121.856 101.57 122.042C101.001 122.361 100.434 122.518 99.8845 122.518Z" fill="#E06F6F"/>
<path d="M94.6466 121.059C93.5456 121.059 92.5066 120.461 91.6516 119.297C89.3876 116.212 88.5886 109.062 90.8976 106.967C91.5506 106.373 93.0016 105.693 95.3626 107.81C95.6456 108.063 95.6696 108.498 95.4166 108.781C95.1626 109.065 94.7286 109.088 94.4456 108.835C93.6286 108.103 92.5086 107.361 91.8216 107.986C90.3146 109.353 90.6016 115.544 92.7596 118.484C94.1076 120.32 95.3786 119.575 95.7966 119.331C96.1226 119.14 96.5446 119.249 96.7366 119.577C96.9286 119.905 96.8176 120.326 96.4906 120.517C95.8716 120.879 95.2496 121.059 94.6466 121.059Z" fill="#E06F6F"/>
<path d="M183.972 120.422C174.32 115.721 164.677 110.986 155.043 106.216C146.399 115.761 123.764 151.875 128.441 179.005C125.876 164.125 119.626 143.5 118.256 140.415C111.109 142.151 103.963 143.897 96.8187 145.652C96.6107 145.673 102.52 219.939 133.227 222.168C156.764 216.211 183.619 120.238 183.972 120.422Z" fill="#D2E0FD"/>
<path d="M171.124 158.803C165.644 141.243 160.285 123.607 155.048 105.896C154.916 105.8 137.207 176.884 139.342 218.844C150.952 209.212 162.515 182.061 171.124 158.803Z" fill="#9CAEE8"/>
<path d="M231.977 103.528C218.267 101.806 201.487 101.08 185.707 102.346C185.539 102.359 178.853 103.601 178.853 103.601C174.072 175.095 171 242.73 170.25 314.578C199.468 314.017 229.158 315.163 258.375 314.578C257.853 305.446 255.11 263.612 251.289 211.331C247.414 158.312 242.194 104.874 231.977 103.528Z" fill="#9CAEE8"/>
<path d="M273.964 314.75C270.091 283.742 266.597 252.657 263.501 221.499C263.067 183.81 263.204 146.116 263.911 108.43C251.633 106.357 239.357 104.267 227.082 102.158C220.08 140.003 213.647 178.045 207.794 216.271C210.525 249.167 213.694 281.995 217.278 314.75H273.964Z" fill="#D2E0FD"/>
<path d="M209.546 314.751C208.538 281.929 207.947 249.1 207.793 216.272C198.156 178.754 189.076 140.956 180.565 102.89C172.057 104.047 163.548 105.213 155.041 106.388C152.742 145.143 151.03 183.954 149.906 222.808C149.284 253.438 149.037 284.088 149.147 314.751H209.546Z" fill="#D2E0FD"/>
<path d="M189.485 44.8718C189.393 44.6308 131.851 93.9768 220.051 97.2278C241.507 97.9878 255.411 90.2348 254.213 64.8088C253.645 52.4218 249.522 35.8338 241.145 13.7578C228.905 14.9258 189.45 44.7798 189.485 44.8718Z" fill="#02022B"/>
<path d="M254.212 64.8088C252.616 85.4558 239.916 91.9818 221.069 91.2598C179.283 89.6658 171.194 76.6658 173.944 63.8418C166.75 78.0368 169.112 95.4188 220.05 97.2278C241.486 97.9868 255.25 90.2018 254.212 64.8088Z" fill="#04CBAB"/>
<path d="M224.265 102.667C218.267 101.804 196.905 101.036 185.707 102.347C188.587 113.219 203.206 135.308 203.22 135.286C203.201 135.25 223.027 111.209 224.265 102.667Z" fill="#FFBABA"/>
<path d="M172.157 141.839C171.169 146.818 174.299 151.671 179.133 152.667C183.968 153.663 188.673 150.448 189.655 145.494C190.637 140.541 187.528 135.705 182.699 134.682C177.87 133.661 173.144 136.86 172.157 141.839Z" fill="white"/>
<path d="M175.656 142.573C175.064 145.557 176.939 148.467 179.839 149.068C182.739 149.669 185.564 147.742 186.154 144.767C186.744 141.792 184.876 138.888 181.978 138.278C179.08 137.667 176.247 139.588 175.656 142.573Z" fill="#04CBAB"/>
<path d="M217.206 176.846C226.91 172.365 234.252 163.036 236.419 152.475C238.582 141.912 235.508 130.42 228.37 122.393C227.939 122.788 227.509 123.183 227.078 123.577C233.85 131.19 236.766 142.094 234.714 152.116C232.658 162.137 225.692 170.986 216.487 175.232C216.727 175.771 216.966 176.309 217.206 176.846Z" fill="white"/>
<path d="M213.995 175.016C211.807 175.978 210.417 177.663 210.89 178.778C211.363 179.893 213.52 180.013 215.706 179.049C217.893 178.085 219.283 176.404 218.811 175.291C218.339 174.179 216.183 174.055 213.995 175.016Z" fill="white"/>
<path d="M217.149 176.834C217.567 176.425 217.985 176.016 218.403 175.607C211.398 168.198 208.212 157.255 210.115 147.131C212.015 137.005 218.936 128.055 228.129 123.797C227.888 123.261 227.647 122.726 227.407 122.19C217.711 126.676 210.41 136.116 208.406 146.798C206.398 157.478 209.76 169.021 217.149 176.834Z" fill="white"/>
<path d="M220.796 176.348C222.477 178.065 223.158 180.147 222.315 181.003C221.472 181.859 219.423 181.164 217.74 179.447C216.057 177.73 215.378 175.642 216.223 174.786C217.068 173.93 219.115 174.632 220.796 176.348Z" fill="white"/>
<path d="M227.64 123.455C227.588 123.455 227.536 123.449 227.484 123.437C227.114 123.351 226.883 122.981 226.969 122.612C227.069 122.18 227.266 121.569 227.515 120.796C228.713 117.069 231.206 109.314 227.876 104.952C226.015 102.514 222.506 101.389 217.44 101.617C217.056 101.62 216.74 101.34 216.723 100.96C216.706 100.581 217 100.26 217.38 100.243C222.921 99.9972 226.819 101.3 228.969 104.117C232.735 109.05 230.093 117.267 228.823 121.216C228.585 121.959 228.395 122.546 228.308 122.923C228.234 123.24 227.952 123.455 227.64 123.455Z" fill="#04CBAB"/>
<path d="M180.802 144.8C180.522 144.8 180.259 144.628 180.157 144.35C178.422 139.626 170.186 115.519 178.525 104.826C181.706 100.747 186.887 99.0578 193.92 99.8048C194.298 99.8448 194.571 100.184 194.531 100.561C194.491 100.938 194.157 101.214 193.775 101.172C187.248 100.478 182.48 101.992 179.61 105.672C171.719 115.792 179.757 139.272 181.449 143.876C181.58 144.233 181.397 144.628 181.041 144.759C180.961 144.787 180.881 144.8 180.802 144.8Z" fill="#04CBAB"/>
<path d="M205.329 50.487C198.89 49.882 192.451 49.275 186.012 48.667C173.445 47.461 177.005 64.651 181.971 65.089C189.515 65.791 197.06 66.49 204.604 67.186C204.834 61.619 205.075 56.053 205.329 50.487Z" fill="#671809"/>
<path d="M221.821 69.251C212.732 65.525 203.649 61.774 194.571 57.998C193.169 74.082 191.87 90.179 190.673 106.289C189.651 119.866 214.818 123.839 216.275 111.286C216.213 111.202 221.752 69.235 221.821 69.251Z" fill="#FFBABA"/>
<path d="M191.518 95.1398C198.573 100.878 210.189 101.806 219.044 89.8858C220.415 79.5018 221.786 69.2428 221.82 69.2508C218.788 68.0078 215.757 66.7578 212.726 65.5088C206.481 68.8238 198.697 73.0618 193.009 76.4878C192.498 82.7038 191.999 88.9208 191.518 95.1398Z" fill="#671809"/>
<path d="M235.019 69.2926C241.011 69.8116 251.108 52.0856 235.591 51.0996C235.385 57.1636 235.195 63.2276 235.019 69.2926Z" fill="#E06F6F"/>
<path d="M240.712 40.1113C241.168 31.4433 241.495 17.8193 226.505 9.66727C203.405 -2.94373 196.512 10.1473 190.076 20.5793C183.795 30.3663 168.78 92.8503 203.889 94.5373C223.085 95.4393 238.807 76.2633 240.712 40.1113Z" fill="#FFBABA"/>
<path d="M224.17 66.3064C223.587 67.7854 215.692 65.9684 206.121 65.7774C196.553 65.4584 188.572 66.8514 188.07 65.3424C187.513 63.9314 195.547 59.8354 206.271 60.1544C216.998 60.4084 224.802 64.9274 224.17 66.3064Z" fill="#FFBABA"/>
<path d="M202.903 67.0542C201.222 67.0542 200.975 66.5092 200.874 66.2842C200.115 64.6122 201.243 51.3212 202.185 50.8262L202.504 51.4352L203.182 51.5512C202.676 54.5772 201.456 63.7382 202.084 65.6082C202.551 65.7602 204.192 65.6372 205.74 65.3262C206.112 65.2472 206.474 65.4922 206.549 65.8642C206.624 66.2362 206.383 66.5982 206.01 66.6732C204.634 66.9512 203.633 67.0542 202.903 67.0542Z" fill="#E06F6F"/>
<path d="M195.715 69.7219C198.101 77.1789 208.763 81.6269 215.526 69.4589C208.966 69.1289 202.377 69.0719 195.715 69.7219Z" fill="white"/>
<path d="M193.8 57.9478C193.727 59.5478 194.68 60.9038 195.928 60.9748C197.176 61.0468 198.246 59.8098 198.319 58.2118C198.392 56.6138 197.441 55.2588 196.193 55.1848C194.945 55.1108 193.873 56.3478 193.8 57.9478Z" fill="#671809"/>
<path d="M215.598 59.2306C215.525 60.8216 216.479 62.1696 217.727 62.2406C218.975 62.3126 220.044 61.0826 220.116 59.4936C220.188 57.9046 219.236 56.5576 217.989 56.4836C216.742 56.4096 215.67 57.6396 215.598 59.2306Z" fill="#671809"/>
<path d="M224.891 53.9468C224.569 53.9468 224.282 53.7198 224.217 53.3918C223.517 49.8218 221.092 48.3678 219.056 48.1968C216.615 47.9908 214.393 49.4008 213.523 51.7018C213.389 52.0568 212.991 52.2378 212.637 52.1018C212.282 51.9678 212.103 51.5708 212.237 51.2158C213.325 48.3348 216.107 46.5678 219.171 46.8268C221.708 47.0388 224.719 48.8058 225.567 53.1278C225.64 53.5008 225.397 53.8618 225.025 53.9348C224.979 53.9428 224.935 53.9468 224.891 53.9468Z" fill="#671809"/>
<path d="M190.474 52.8059C190.387 52.8059 190.298 52.7889 190.212 52.7539C189.861 52.6089 189.694 52.2069 189.84 51.8559C191.115 48.7689 193.874 46.7689 196.868 46.7589C199.601 46.7429 201.975 48.3989 203.139 51.1679C203.286 51.5179 203.121 51.9209 202.772 52.0679C202.419 52.2159 202.018 52.0499 201.872 51.7009C200.933 49.4659 199.071 48.1339 196.889 48.1339C196.884 48.1339 196.878 48.1339 196.873 48.1339C194.436 48.1409 192.174 49.8079 191.111 52.3809C191 52.6459 190.744 52.8059 190.474 52.8059Z" fill="#671809"/>
<path d="M237.747 20.6748C239.971 26.6128 239.767 32.7538 239.514 37.4388C237.584 73.6028 221.848 92.7748 202.653 91.8588C193.642 91.4118 187.924 86.9388 184.516 80.3608C187.707 88.3858 193.693 94.0388 203.889 94.5368C223.084 95.4388 238.807 76.2628 240.712 40.1098C240.999 34.7168 241.226 27.3948 237.747 20.6748Z" fill="#E06F6F"/>
<path d="M226.505 9.66727C203.405 -2.94373 196.512 10.1473 190.076 20.5793C187.967 23.9873 184.719 33.6173 182.871 44.8813C192.65 42.9743 202.056 39.5543 210.511 34.7843C209.892 37.6903 208.242 40.4053 205.859 42.4373C211.357 42.3583 216.77 40.6643 221.199 37.7813C224.423 45.5833 230.924 54.3543 237.768 60.6113C239.29 54.5473 240.306 47.7143 240.712 40.1103C241.167 31.4423 241.495 17.8193 226.505 9.66727Z" fill="#E06F6F"/>
<path d="M139.193 258.987C130.732 234.316 120.695 209.842 109.136 185.654C130.122 186.14 147.21 185.579 170.41 177.698C175.862 195.645 193.061 248.941 195.376 253.647C185.054 256.248 174.166 260.241 163.297 260.98C154.734 261.56 147.792 259.796 139.193 258.987Z" fill="white"/>
<path d="M169.213 214.876C159.211 217.398 145 217.307 135.038 214.577C139.556 218.941 144.727 221.094 150.878 221.506C157.029 221.917 164.185 218.547 169.213 214.876Z" fill="#D2E0FD"/>
<path d="M241.144 13.7574C234.035 -0.355618 216.812 -1.74062 206.135 1.50338C195.465 4.74038 187.047 12.3864 181.101 21.0484C175.715 28.8904 171.967 37.7794 165.123 44.6494C181.35 44.7364 197.538 40.5394 211.236 32.8264C210.616 35.7314 208.964 38.4454 206.58 40.4764C212.078 40.4004 217.492 38.7094 221.922 35.8294C225.552 44.6294 233.351 54.6644 241.107 60.9384C246.688 47.9844 246.821 28.3894 241.144 13.7574Z" fill="#02022B"/>
<path d="M255.54 266.773C246.013 268.248 235.909 265.491 228.433 259.304C236.776 261.859 247.193 264.256 255.54 266.773Z" fill="#9CAEE8"/>
<path d="M159.284 269.048C168.874 270.1 178.824 266.785 186.023 260.215C177.799 263.156 167.501 266.068 159.284 269.048Z" fill="#9CAEE8"/>
<path d="M212.758 212.572C211.537 219.026 210.332 225.487 209.143 231.954C209.292 233.658 209.441 235.361 209.592 237.064C215.734 238.376 242.118 243.742 266.009 245.759C265.146 237.621 264.31 229.477 263.5 221.329C263.496 221.009 263.493 220.69 263.489 220.37C246.577 217.807 229.666 215.208 212.758 212.572Z" fill="#9CAEE8"/>
<path d="M183.762 220.265C183.762 220.263 167.008 221.716 167.05 224.555C167.086 226.994 182.134 226.299 182.134 226.299C182.134 226.297 171.532 229.105 167.137 230.227C162.222 231.479 162.975 234.555 167.742 234.127C172.703 233.681 182.499 231.975 182.499 231.975C182.499 231.975 175.353 234.868 171.011 236.435C167.143 237.83 168.615 240.216 171.711 239.764C176.218 239.105 184.62 236.227 184.62 236.229C184.62 236.227 177.229 239.713 177.565 241.004C178.257 243.659 188.45 239.872 191.769 237.449C195.723 234.556 201.029 231.712 200.223 226.134C199.835 223.486 189.517 212.905 181.085 211.635C181.974 214.513 182.867 217.39 183.762 220.265Z" fill="#FFBABA"/>
<path d="M231.231 232.234C219.133 232.407 207.036 232.58 194.939 232.753C194.876 228.329 194.82 223.904 194.772 219.48C208.363 217.563 221.956 215.665 235.55 213.786C234.095 219.928 232.656 226.077 231.231 232.234Z" fill="#FFBABA"/>
<path d="M276.147 208.893L246.948 151.625L252.438 201.314L209.625 219.126L276.147 208.893Z" fill="#9CAEE8"/>
<path d="M200.472 232.674C210.725 232.527 220.978 232.38 231.232 232.234C232.656 226.077 234.096 219.928 235.55 213.786C223.409 215.464 213.638 216.793 201.499 218.501C200.874 222.876 200.249 229.751 200.472 232.674Z" fill="#E06F6F"/>
<path d="M263.911 108.259C258.239 113.829 247.907 133.803 246.498 151.489C246.943 173.135 258.144 205.767 258.169 205.74C239.561 208.24 220.955 210.775 202.351 213.345C203.121 221.538 203.917 229.726 204.74 237.909C204.742 237.914 255.201 234.045 282.991 225.008C282.219 190.478 276.345 138.741 263.911 108.259Z" fill="#D2E0FD"/>
<path d="M321.788 135.637C321.697 135.637 321.605 135.619 321.518 135.582C321.262 135.473 321.098 135.222 321.1 134.944L321.77 51.3697C321.842 42.4617 329.112 35.2646 338.002 35.2646C338.046 35.2646 338.09 35.2646 338.135 35.2646L416.175 35.8906C425.126 35.9626 432.351 43.3036 432.279 52.2546L431.957 92.4397C431.885 101.347 424.615 108.544 415.725 108.544C415.681 108.544 415.637 108.544 415.592 108.543L350.406 108.021L322.266 135.441C322.137 135.569 321.964 135.637 321.788 135.637ZM338.003 36.6396C329.864 36.6396 323.211 43.2266 323.146 51.3806L322.49 133.307L349.651 106.84C349.78 106.713 349.924 106.648 350.136 106.645L415.605 107.17C415.645 107.171 415.686 107.171 415.726 107.171C423.865 107.171 430.518 100.584 430.583 92.4306L430.905 52.2457C430.97 44.0527 424.357 37.3326 416.164 37.2666L338.124 36.6406C338.084 36.6396 338.043 36.6396 338.003 36.6396Z" fill="#9CAEE8"/>
<path d="M408.282 60.8379H345.1C344.72 60.8379 344.412 60.5299 344.412 60.1499C344.412 59.7699 344.72 59.4619 345.1 59.4619H408.283C408.663 59.4619 408.971 59.7699 408.971 60.1499C408.971 60.5299 408.662 60.8379 408.282 60.8379Z" fill="#9CAEE8"/>
<path d="M408.282 70.292H393.062C392.682 70.292 392.374 69.984 392.374 69.604C392.374 69.224 392.682 68.916 393.062 68.916H408.282C408.662 68.916 408.97 69.224 408.97 69.604C408.97 69.985 408.662 70.292 408.282 70.292Z" fill="#9CAEE8"/>
<path d="M384.069 70.292H345.1C344.72 70.292 344.412 69.984 344.412 69.604C344.412 69.224 344.72 68.916 345.1 68.916H384.07C384.45 68.916 384.758 69.224 384.758 69.604C384.757 69.985 384.449 70.292 384.069 70.292Z" fill="#9CAEE8"/>
<path d="M370.926 79.7471H345.1C344.72 79.7471 344.412 79.4391 344.412 79.0591C344.412 78.6791 344.72 78.3711 345.1 78.3711H370.926C371.306 78.3711 371.614 78.6791 371.614 79.0591C371.614 79.4391 371.306 79.7471 370.926 79.7471Z" fill="#9CAEE8"/>
<path d="M82.3538 190.636C82.1778 190.636 82.0048 190.569 81.8738 190.441L61.0848 170.184L12.8778 170.57C12.8448 170.57 12.8118 170.57 12.7788 170.57C6.0948 170.57 0.630802 165.16 0.576802 158.465L0.337802 128.702C0.283802 121.973 5.7138 116.455 12.4428 116.402L70.2438 115.939C76.9998 115.868 82.4898 121.315 82.5438 128.044L83.0398 189.944C83.0418 190.221 82.8768 190.473 82.6218 190.582C82.5368 190.618 82.4458 190.636 82.3538 190.636ZM61.3628 168.806C61.5418 168.806 61.7148 168.876 61.8428 169.001L81.6538 188.306L81.1708 128.054C81.1478 125.162 79.9998 122.452 77.9378 120.423C75.8978 118.415 73.2048 117.313 70.3458 117.313C70.3158 117.313 70.2858 117.313 70.2558 117.314L12.4548 117.777C6.4848 117.825 1.6658 122.721 1.7138 128.692L1.9528 158.455C2.0008 164.395 6.8488 169.196 12.7798 169.196C12.8088 169.196 12.8378 169.196 12.8678 169.196L61.3578 168.807C61.3588 168.806 61.3608 168.806 61.3628 168.806Z" fill="#04CBAB"/>
<path d="M65.089 135.235H18.292C17.912 135.235 17.604 134.927 17.604 134.547C17.604 134.167 17.912 133.859 18.292 133.859H65.089C65.469 133.859 65.777 134.167 65.777 134.547C65.777 134.928 65.469 135.235 65.089 135.235Z" fill="#04CBAB"/>
<path d="M29.564 142.238H18.292C17.912 142.238 17.604 141.93 17.604 141.55C17.604 141.17 17.912 140.862 18.292 140.862H29.564C29.944 140.862 30.252 141.17 30.252 141.55C30.252 141.93 29.944 142.238 29.564 142.238Z" fill="#04CBAB"/>
<path d="M65.0891 142.238H36.2251C35.8451 142.238 35.5371 141.93 35.5371 141.55C35.5371 141.17 35.8451 140.862 36.2251 140.862H65.0891C65.4691 140.862 65.7771 141.17 65.7771 141.55C65.7771 141.93 65.4691 142.238 65.0891 142.238Z" fill="#04CBAB"/>
<path d="M65.089 149.24H45.96C45.58 149.24 45.272 148.932 45.272 148.552C45.272 148.172 45.58 147.864 45.96 147.864H65.089C65.469 147.864 65.777 148.172 65.777 148.552C65.777 148.933 65.469 149.24 65.089 149.24Z" fill="#04CBAB"/>
</svg>
